<svg width="29" height="28" viewBox="0 0 29 28" fill="none" xmlns="http://www.w3.org/2000/svg">
<g clip-path="url(#clip0_2_202)">
<path d="M14.5 2.33325C17.6698 2.33325 18.0653 2.34492 19.309 2.40325C20.5515 2.46159 21.3973 2.65642 22.1416 2.94575C22.9116 3.24209 23.5603 3.64342 24.209 4.29092C24.8022 4.87413 25.2613 5.57961 25.5541 6.35825C25.8423 7.10142 26.0383 7.94842 26.0966 9.19092C26.1515 10.4346 26.1666 10.8301 26.1666 13.9999C26.1666 17.1698 26.155 17.5653 26.0966 18.8089C26.0383 20.0514 25.8423 20.8973 25.5541 21.6416C25.2621 22.4207 24.803 23.1263 24.209 23.7089C23.6256 24.302 22.9202 24.761 22.1416 25.0541C21.3985 25.3423 20.5515 25.5383 19.309 25.5966C18.0653 25.6514 17.6698 25.6666 14.5 25.6666C11.3301 25.6666 10.9346 25.6549 9.69098 25.5966C8.44848 25.5383 7.60265 25.3423 6.85831 25.0541C6.07936 24.7618 5.37376 24.3027 4.79098 23.7089C4.19762 23.1258 3.73857 22.4203 3.44581 21.6416C3.15648 20.8984 2.96165 20.0514 2.90331 18.8089C2.84848 17.5653 2.83331 17.1698 2.83331 13.9999C2.83331 10.8301 2.84498 10.4346 2.90331 9.19092C2.96165 7.94725 3.15648 7.10259 3.44581 6.35825C3.73776 5.57913 4.19692 4.87346 4.79098 4.29092C5.37393 3.69736 6.07948 3.23827 6.85831 2.94575C7.60265 2.65642 8.44731 2.46159 9.69098 2.40325C10.9346 2.34842 11.3301 2.33325 14.5 2.33325ZM14.5 8.16659C12.9529 8.16659 11.4692 8.78117 10.3752 9.87513C9.28123 10.9691 8.66665 12.4528 8.66665 13.9999C8.66665 15.547 9.28123 17.0307 10.3752 18.1247C11.4692 19.2187 12.9529 19.8333 14.5 19.8333C16.0471 19.8333 17.5308 19.2187 18.6248 18.1247C19.7187 17.0307 20.3333 15.547 20.3333 13.9999C20.3333 12.4528 19.7187 10.9691 18.6248 9.87513C17.5308 8.78117 16.0471 8.16659 14.5 8.16659ZM22.0833 7.87492C22.0833 7.48814 21.9297 7.11721 21.6562 6.84372C21.3827 6.57023 21.0118 6.41659 20.625 6.41659C20.2382 6.41659 19.8673 6.57023 19.5938 6.84372C19.3203 7.11721 19.1666 7.48814 19.1666 7.87492C19.1666 8.26169 19.3203 8.63263 19.5938 8.90612C19.8673 9.17961 20.2382 9.33325 20.625 9.33325C21.0118 9.33325 21.3827 9.17961 21.6562 8.90612C21.9297 8.63263 22.0833 8.26169 22.0833 7.87492ZM14.5 10.4999C15.4282 10.4999 16.3185 10.8687 16.9749 11.525C17.6312 12.1814 18 13.0717 18 13.9999C18 14.9282 17.6312 15.8184 16.9749 16.4748C16.3185 17.1312 15.4282 17.4999 14.5 17.4999C13.5717 17.4999 12.6815 17.1312 12.0251 16.4748C11.3687 15.8184 11 14.9282 11 13.9999C11 13.0717 11.3687 12.1814 12.0251 11.525C12.6815 10.8687 13.5717 10.4999 14.5 10.4999Z" fill="#2B2B2B"/>
</g>
<defs>
<clipPath id="clip0_2_202">
<rect width="28" height="28" fill="white" transform="translate(0.5)"/>
</clipPath>
</defs>
</svg>
