<svg width="29" height="28" viewBox="0 0 29 28" fill="none" xmlns="http://www.w3.org/2000/svg">
<g clip-path="url(#clip0_2_214)">
<path d="M8.59666 5.83328C8.59635 6.45212 8.35022 7.04549 7.91242 7.48285C7.47461 7.92022 6.881 8.16576 6.26216 8.16545C5.64332 8.16514 5.04995 7.91901 4.61259 7.4812C4.17522 7.0434 3.92968 6.44978 3.92999 5.83095C3.9303 5.21211 4.17643 4.61874 4.61424 4.18137C5.05204 3.74401 5.64565 3.49847 6.26449 3.49878C6.88333 3.49909 7.4767 3.74522 7.91407 4.18302C8.35143 4.62083 8.59697 5.21444 8.59666 5.83328ZM8.66666 9.89328H3.99999V24.4999H8.66666V9.89328ZM16.04 9.89328H11.3967V24.4999H15.9933V16.8349C15.9933 12.5649 21.5583 12.1683 21.5583 16.8349V24.4999H26.1667V15.2483C26.1667 8.04995 17.93 8.31828 15.9933 11.8533L16.04 9.89328Z" fill="#2B2B2B"/>
</g>
<defs>
<clipPath id="clip0_2_214">
<rect width="28" height="28" fill="white" transform="translate(0.5)"/>
</clipPath>
</defs>
</svg>
