<svg width="29" height="28" viewBox="0 0 29 28" fill="none" xmlns="http://www.w3.org/2000/svg">
<g clip-path="url(#clip0_2_208)">
<path d="M26.3557 6.59858C25.465 6.99256 24.5205 7.2513 23.5533 7.36625C24.5727 6.75659 25.3357 5.7971 25.7 4.66658C24.7433 5.23591 23.6945 5.63491 22.6013 5.85075C21.867 5.06509 20.8938 4.54404 19.8328 4.3686C18.7718 4.19316 17.6826 4.37315 16.7345 4.88061C15.7864 5.38807 15.0325 6.19455 14.59 7.17467C14.1475 8.1548 14.0412 9.25366 14.2877 10.3004C12.3476 10.2032 10.4497 9.69903 8.71717 8.82069C6.98462 7.94235 5.45615 6.70947 4.231 5.20208C3.79734 5.94694 3.56945 6.79368 3.57067 7.65558C3.57067 9.34725 4.43167 10.8417 5.74067 11.7167C4.96601 11.6924 4.20841 11.4832 3.531 11.1066V11.1672C3.53123 12.2939 3.9211 13.3858 4.63449 14.2578C5.34788 15.1298 6.3409 15.7283 7.44517 15.9517C6.72605 16.1466 5.97203 16.1753 5.24017 16.0357C5.55151 17.0055 6.15834 17.8536 6.97569 18.4614C7.79304 19.0691 8.77998 19.406 9.79833 19.4249C8.78623 20.2198 7.62737 20.8074 6.38803 21.1541C5.14868 21.5008 3.85315 21.5999 2.5755 21.4456C4.80581 22.8799 7.40211 23.6414 10.0538 23.6389C19.029 23.6389 23.9372 16.2037 23.9372 9.75558C23.9372 9.54558 23.9313 9.33325 23.922 9.12558C24.8773 8.43511 25.7019 7.57977 26.3568 6.59975L26.3557 6.59858Z" fill="#2B2B2B"/>
</g>
<defs>
<clipPath id="clip0_2_208">
<rect width="28" height="28" fill="white" transform="translate(0.5)"/>
</clipPath>
</defs>
</svg>
