<svg width="29" height="28" viewBox="0 0 29 28" fill="none" xmlns="http://www.w3.org/2000/svg">
<g clip-path="url(#clip0_2_222)">
<path d="M25.6335 7.58108C26.1666 9.66008 26.1666 14.0001 26.1666 14.0001C26.1666 14.0001 26.1666 18.3401 25.6335 20.4191C25.3371 21.5682 24.4703 22.4724 23.3725 22.7781C21.3786 23.3334 14.5 23.3334 14.5 23.3334C14.5 23.3334 7.62481 23.3334 5.62748 22.7781C4.52498 22.4677 3.65931 21.5647 3.36648 20.4191C2.83331 18.3401 2.83331 14.0001 2.83331 14.0001C2.83331 14.0001 2.83331 9.66008 3.36648 7.58108C3.66281 6.43191 4.52965 5.52775 5.62748 5.22208C7.62481 4.66675 14.5 4.66675 14.5 4.66675C14.5 4.66675 21.3786 4.66675 23.3725 5.22208C24.475 5.53241 25.3406 6.43541 25.6335 7.58108ZM12.1666 18.0834L19.1666 14.0001L12.1666 9.91675V18.0834Z" fill="#2B2B2B"/>
</g>
<defs>
<clipPath id="clip0_2_222">
<rect width="28" height="28" fill="white" transform="translate(0.5)"/>
</clipPath>
</defs>
</svg>
